<svg width="178" height="98" viewBox="0 0 178 98" fill="none" xmlns="http://www.w3.org/2000/svg">
<g filter="url(#filter0_d)">
<rect x="4.5" y="0.5" width="169" height="89" rx="3.5" stroke="#AFB1B8"/>
<path d="M64.4876 61.2778C64.7175 61.5634 64.84 61.9212 64.8336 62.2884C64.8453 62.528 64.8032 62.7671 64.7104 62.988C64.6176 63.209 64.4765 63.4062 64.2975 63.565C63.851 63.9037 63.2977 64.0692 62.7393 64.0313H60V57.6263H62.6832C63.2129 57.5909 63.7383 57.7413 64.1698 58.0518C64.3431 58.1974 64.4803 58.3815 64.5706 58.5895C64.6609 58.7974 64.7019 59.0236 64.6902 59.2502C64.706 59.6035 64.5954 59.9509 64.3786 60.2296C64.1704 60.4841 63.8826 60.6605 63.5621 60.7302C63.9255 60.7968 64.2535 60.9909 64.4876 61.2778ZM61.2746 60.3109H62.4215C62.6821 60.3303 62.941 60.2548 63.1507 60.0982C63.2368 60.0198 63.3038 59.9226 63.3465 59.8141C63.3892 59.7056 63.4064 59.5887 63.3969 59.4724C63.405 59.3565 63.3874 59.2403 63.3453 59.1321C63.3033 59.0239 63.2379 58.9264 63.1538 58.8466C62.9378 58.6856 62.6709 58.6088 62.4028 58.6307H61.2746V60.3109ZM63.2629 62.7672C63.3549 62.6869 63.4273 62.5865 63.4743 62.4736C63.5213 62.3607 63.5418 62.2385 63.534 62.1163C63.541 61.9928 63.5197 61.8693 63.4716 61.7554C63.4235 61.6414 63.35 61.5401 63.2567 61.4593C63.0323 61.2922 62.7563 61.2102 62.4776 61.2277H61.2746V62.9893H62.4931C62.7674 63.0052 63.0389 62.9269 63.2629 62.7672Z" fill="#AFB1B8"/>
<path d="M69.9724 64.0313L68.4797 61.5281H67.9187V64.0313H66.6348V57.6263H69.0656C69.6783 57.5834 70.284 57.7783 70.7578 58.1708C71.0976 58.5184 71.3025 58.9764 71.3357 59.4624C71.3688 59.9483 71.228 60.4301 70.9385 60.821C70.6386 61.1659 70.229 61.3959 69.7792 61.4718L71.3686 64.0313H69.9724ZM67.9187 60.6552H68.969C69.6982 60.6552 70.0628 60.3318 70.0628 59.6852C70.0703 59.5531 70.0503 59.421 70.0041 59.2971C69.958 59.1732 69.8867 59.0603 69.7948 58.9655C69.5644 58.7731 69.2676 58.6798 68.969 58.7058H67.9063L67.9187 60.6552Z" fill="#AFB1B8"/>
<path d="M76.9908 62.742H74.4322L73.9803 64.0311H72.634L74.9838 57.6981H76.4392L78.7796 64.0311H77.4333L76.9908 62.742ZM76.648 61.772L75.7131 59.0686L74.7781 61.772H76.648Z" fill="#AFB1B8"/>
<path d="M85.7759 64.0312H84.5013L81.6436 59.6757V64.0312H80.3721V57.6262H81.6436L84.5013 62.0068V57.6262H85.7759V64.0312Z" fill="#AFB1B8"/>
<path d="M93.0497 62.4981C92.7862 62.9817 92.3846 63.375 91.8966 63.6276C91.3418 63.909 90.7261 64.0477 90.1047 64.0313H87.8359V57.6263H90.1047C90.725 57.61 91.3399 57.7453 91.8966 58.0206C92.3845 58.2674 92.7865 58.6569 93.0497 59.1376C93.3121 59.6585 93.4488 60.2341 93.4488 60.8178C93.4488 61.4016 93.3121 61.9772 93.0497 62.4981ZM91.5912 62.3448C91.955 61.9193 92.155 61.377 92.155 60.8163C92.155 60.2555 91.955 59.7133 91.5912 59.2878C91.1515 58.9024 90.5781 58.7067 89.9956 58.7433H89.1106V62.8892H89.9956C90.5781 62.9258 91.1515 62.7302 91.5912 62.3448Z" fill="#AFB1B8"/>
<path d="M77.7886 22C77.7886 22 94.2401 28.236 93.8911 37.2599V52.5229C93.8911 52.5229 77.452 46.2838 77.7948 37.2599L77.7886 22Z" fill="#AFB1B8"/>
<path d="M108.548 48.9496C111.655 46.8028 115.249 45.4731 119 45.0822V40.3043C114.677 41.977 111.01 45.0101 108.548 48.9496Z" fill="#AFB1B8"/>
<path d="M106.681 50.389C109.224 45.2478 113.633 41.2805 119 39.3032V25.5358C119 25.5358 95.5708 34.4189 96.0663 47.2695V69C96.0663 69 97.1103 68.6027 98.7527 67.858C98.7527 67.1633 98.7527 66.4625 98.8275 65.7584C99.3124 59.7926 102.137 54.2643 106.681 50.389Z" fill="#AFB1B8"/>
<path d="M104.453 58.4617C104.576 56.9546 104.85 55.4639 105.272 54.0123C102.443 57.3589 100.73 61.5117 100.373 65.8867C100.339 66.2997 100.32 66.7127 100.311 67.1383C101.642 66.4968 103.19 65.6958 104.817 64.754C104.402 62.6842 104.279 60.5659 104.453 58.4617Z" fill="#AFB1B8"/>
<path d="M105.384 58.54C105.228 60.4437 105.326 62.3599 105.674 64.2378C112.075 60.3923 119.268 54.4504 118.991 47.2695V46.6437C114.417 47.1575 110.138 49.1648 106.812 52.3571C106.033 54.3355 105.552 56.4193 105.384 58.54Z" fill="#AFB1B8"/>
</g>
<defs>
<filter id="filter0_d" x="0" y="0" width="178" height="98" filterUnits="userSpaceOnUse" color-interpolation-filters="sRGB">
<feFlood flood-opacity="0" result="BackgroundImageFix"/>
<feColorMatrix in="SourceAlpha" type="matrix" values="0 0 0 0 0 0 0 0 0 0 0 0 0 0 0 0 0 0 127 0"/>
<feOffset dy="4"/>
<feGaussianBlur stdDeviation="2"/>
<feColorMatrix type="matrix" values="0 0 0 0 0 0 0 0 0 0 0 0 0 0 0 0 0 0 0.25 0"/>
<feBlend mode="normal" in2="BackgroundImageFix" result="effect1_dropShadow"/>
<feBlend mode="normal" in="SourceGraphic" in2="effect1_dropShadow" result="shape"/>
</filter>
</defs>
</svg>
